<?xml version="1.0" encoding="UTF-8"?>
<!DOCTYPE svg PUBLIC "-//W3C//DTD SVG 1.1//EN" "http://www.w3.org/Graphics/SVG/1.1/DTD/svg11.dtd">
<svg xmlns="http://www.w3.org/2000/svg" version="1.1" width="64px" height="64px" style="shape-rendering:geometricPrecision; text-rendering:geometricPrecision; image-rendering:optimizeQuality; fill-rule:evenodd; clip-rule:evenodd" xmlns:xlink="http://www.w3.org/1999/xlink">
<g><path style="opacity:0.682" fill="#ffffff" d="M 63.5,10.5 C 63.5,26.5 63.5,42.5 63.5,58.5C 42.1667,58.5 20.8333,58.5 -0.5,58.5C -0.5,42.5 -0.5,26.5 -0.5,10.5C 1.16667,10.5 2.83333,10.5 4.5,10.5C 4.5,8.5 4.5,6.5 4.5,4.5C 13.8802,4.76155 22.8802,6.76155 31.5,10.5C 40.1198,6.76155 49.1198,4.76155 58.5,4.5C 58.5,6.5 58.5,8.5 58.5,10.5C 60.1667,10.5 61.8333,10.5 63.5,10.5 Z M 7.5,7.5 C 15.0519,8.17921 22.2186,10.1792 29,13.5C 29.6667,27.1667 29.6667,40.8333 29,54.5C 22.2084,51.3137 15.0417,49.647 7.5,49.5C 7.5,35.5 7.5,21.5 7.5,7.5 Z M 52.5,7.5 C 53.5,7.5 54.5,7.5 55.5,7.5C 55.5,21.5 55.5,35.5 55.5,49.5C 47.9583,49.647 40.7916,51.3137 34,54.5C 33.3333,40.8333 33.3333,27.1667 34,13.5C 39.9969,10.6331 46.1636,8.63314 52.5,7.5 Z M 2.5,13.5 C 4.48089,26.1237 5.14755,39.1237 4.5,52.5C 10.2845,52.4899 15.9512,53.3233 21.5,55C 15.1754,55.4995 8.84209,55.6662 2.5,55.5C 2.5,41.5 2.5,27.5 2.5,13.5 Z M 58.5,13.5 C 60.4824,27.1267 61.1491,41.1267 60.5,55.5C 54.1579,55.6662 47.8246,55.4995 41.5,55C 47.0488,53.3233 52.7155,52.4899 58.5,52.5C 58.5,39.5 58.5,26.5 58.5,13.5 Z"/></g>
</svg>
