<?xml version="1.0" encoding="UTF-8"?>
<!DOCTYPE svg PUBLIC "-//W3C//DTD SVG 1.1//EN" "http://www.w3.org/Graphics/SVG/1.1/DTD/svg11.dtd">
<svg xmlns="http://www.w3.org/2000/svg" version="1.1" width="512px" height="512px" style="shape-rendering:geometricPrecision; text-rendering:geometricPrecision; image-rendering:optimizeQuality; fill-rule:evenodd; clip-rule:evenodd" xmlns:xlink="http://www.w3.org/1999/xlink">
<g><path style="opacity:0.972" fill="#ffffff" d="M -0.5,331.5 C -0.5,280.833 -0.5,230.167 -0.5,179.5C 2.90241,166.263 11.2357,157.763 24.5,154C 54.1267,152.707 83.7934,152.04 113.5,152C 168.833,107.667 224.167,63.3333 279.5,19C 293.965,12.9828 303.131,17.4828 307,32.5C 307.667,181.5 307.667,330.5 307,479.5C 302.53,493.816 293.364,497.983 279.5,492C 224.167,447.667 168.833,403.333 113.5,359C 83.7934,358.96 54.1267,358.293 24.5,357C 11.2446,353.245 2.91127,344.745 -0.5,331.5 Z M 271.5,70.5 C 272.666,193.666 272.833,316.999 272,440.5C 227,404.5 182,368.5 137,332.5C 136.333,281.167 136.333,229.833 137,178.5C 181.994,142.601 226.828,106.601 271.5,70.5 Z M 34.5,187.5 C 56.8333,187.5 79.1667,187.5 101.5,187.5C 101.5,232.833 101.5,278.167 101.5,323.5C 79.1667,323.5 56.8333,323.5 34.5,323.5C 34.5,278.167 34.5,232.833 34.5,187.5 Z"/></g>
<g><path style="opacity:0.965" fill="#ffffff" d="M 511.5,233.5 C 511.5,248.167 511.5,262.833 511.5,277.5C 505.414,335.502 481.748,385.002 440.5,426C 424.898,433.364 415.232,428.697 411.5,412C 411.865,408.237 413.032,404.737 415,401.5C 465.653,349.528 484.986,287.528 473,215.5C 464.075,174.304 444.741,138.971 415,109.5C 408.595,96.9312 411.762,87.7645 424.5,82C 430.268,80.7754 435.601,81.7754 440.5,85C 481.748,125.998 505.414,175.498 511.5,233.5 Z"/></g>
<g><path style="opacity:0.964" fill="#ffffff" d="M 376.5,129.5 C 382.818,128.664 388.485,130.164 393.5,134C 435.634,178.422 451.134,230.922 440,291.5C 432.692,324.627 417.192,353.127 393.5,377C 380.424,385.083 370.591,382.25 364,368.5C 363.063,363.597 363.73,358.93 366,354.5C 408.112,310.614 418.779,259.947 398,202.5C 389.733,184.576 378.733,168.576 365,154.5C 361.306,142.561 365.139,134.228 376.5,129.5 Z"/></g>
</svg>
